HIERARCHY
ROOT hip
{
	OFFSET 0.000000 0.000000 0.000000 
	CHANNELS 6 Xposition Yposition Zposition Xrotation Zrotation Yrotation
	JOINT abdomen
	{
		OFFSET 0.000000 3.402643 0.000000 
		CHANNELS 3 Xrotation Zrotation Yrotation
		JOINT chest
		{
			OFFSET 0.000000 8.438565 -0.680529 
			CHANNELS 3 Xrotation Zrotation Yrotation
			JOINT neck
			{
				OFFSET 0.000000 10.207942 -0.272212 
				CHANNELS 3 Xrotation Zrotation Yrotation
				JOINT head
				{
					OFFSET 0.000000 3.130431 0.000000 
					CHANNELS 3 Xrotation Zrotation Yrotation
					End Site
					{
						OFFSET 0.000000 3.130435 0.000000 
					}
				}
			}
			JOINT lCollar
			{
				OFFSET 3.470700 6.669187 -0.816635 
				CHANNELS 3 Yrotation Zrotation Xrotation
				JOINT lShldr
				{
					OFFSET 3.198488 0.000000 0.000000 
					CHANNELS 3 Zrotation Yrotation Xrotation
					JOINT lForeArm
					{
						OFFSET 10.139888 0.000000 0.000000 
						CHANNELS 3 Yrotation Zrotation Xrotation
						JOINT lHand
						{
							OFFSET 8.370511 0.000000 0.000000 
							CHANNELS 3 Zrotation Yrotation Xrotation
							End Site
							{
								OFFSET 4.083176 0.000000 0.000000 
							}
						}
					}
				}
			}
			JOINT rCollar
			{
				OFFSET -3.470700 6.669187 -0.816635 
				CHANNELS 3 Yrotation Zrotation Xrotation
				JOINT rShldr
				{
					OFFSET -3.198488 0.000000 0.000000 
					CHANNELS 3 Zrotation Yrotation Xrotation
					JOINT rForeArm
					{
						OFFSET -10.139888 0.000000 0.000000 
						CHANNELS 3 Yrotation Zrotation Xrotation
						JOINT rHand
						{
							OFFSET -8.370511 0.000000 0.000000 
							CHANNELS 3 Zrotation Yrotation Xrotation
							End Site
							{
								OFFSET -4.083176 0.000000 0.000000 
							}
						}
					}
				}
			}
		}
	}
	JOINT lThigh
	{
		OFFSET 5.308129 -1.633274 1.361059 
		CHANNELS 3 Xrotation Zrotation Yrotation
		JOINT lShin
		{
			OFFSET -2.041588 -20.007561 0.000000 
			CHANNELS 3 Xrotation Zrotation Yrotation
			JOINT lFoot
			{
				OFFSET 0.000000 -19.190928 -1.224953 
				CHANNELS 3 Xrotation Yrotation Zrotation
				End Site
				{
					OFFSET 0.000000 -2.449906 4.627600 
				}
			}
		}
	}
	JOINT rThigh
	{
		OFFSET -5.308129 -1.633274 1.361059 
		CHANNELS 3 Xrotation Zrotation Yrotation
		JOINT rShin
		{
			OFFSET 2.041588 -20.007561 0.000000 
			CHANNELS 3 Xrotation Zrotation Yrotation
			JOINT rFoot
			{
				OFFSET 0.000000 -19.190928 -1.224953 
				CHANNELS 3 Xrotation Yrotation Zrotation
				End Site
				{
					OFFSET 0.000000 -2.449906 4.627600 
				}
			}
		}
	}
}
MOTION
Frames: 16
Frame Time: 0.033333
1.375728 38.817001 5.691604 17.967600 8.227900 95.677299 6.564210 -0.737087 6.751900 10.927200 -2.053850 17.525900 -4.823350 -6.026300 -26.914801 -10.311100 -30.545000 41.204102 2.888017 -6.203110 -1.288960 -82.190903 22.631901 23.902201 -5.930390 -0.017222 29.166599 16.964001 -7.972930 0.000000 -9.867747 -9.315744 0.838997 77.171997 9.705320 29.645500 72.035896 -0.503932 22.274900 -16.964001 7.972930 0.000000 -16.440369 -29.583305 -0.666888 54.688076 0.908089 -2.823146 -23.290192 -3.253129 9.265886 -37.917561 -14.209183 25.709774 89.490417 -2.304964 -3.551772 -14.163849 0.697261 -1.001720 
1.642924 39.404995 5.894487 18.643000 6.840250 103.807999 6.223130 -1.224620 6.471850 10.115900 -2.996140 17.737400 -3.848440 -5.155860 -26.912201 -10.202500 -28.440901 35.807499 2.967830 -6.417234 -1.328052 -78.107101 18.896400 9.554030 -3.971250 -0.026573 23.240000 16.964001 -7.972930 0.000000 -9.954663 -11.691555 1.225496 76.160004 4.352370 34.517899 72.445396 -0.503448 19.348801 -16.964001 7.972930 0.000000 -12.420264 -29.616806 -6.801847 51.926609 0.829252 -6.194109 -21.366240 -3.226442 10.244749 -34.451195 -12.773504 25.053225 86.810493 -2.177136 -0.639207 -18.843359 0.439060 1.358851 
1.843268 40.063522 6.123915 19.031601 5.361500 112.401001 5.989440 -1.596510 6.078980 9.570990 -3.716180 17.467300 -3.467840 -4.169740 -26.138000 -5.881480 -24.772200 30.450199 2.949092 -6.573390 -1.341779 -72.006203 15.857800 -2.614180 -4.714710 -0.017753 19.127300 16.964001 -7.972930 0.000000 -10.908904 -13.895082 1.539676 73.949501 -0.242655 41.191399 72.526199 -0.506940 16.955200 -16.964001 7.972930 0.000000 -8.651946 -29.115877 -13.535176 49.221668 0.743446 -9.471773 -18.810450 -2.972464 10.698734 -30.613935 -11.552732 24.243223 82.174652 -2.011524 1.642356 -20.999752 0.478774 1.481517 
2.090435 40.660713 6.373452 19.248600 2.731250 121.526001 5.620000 -2.283050 5.186520 8.691350 -4.971150 15.763900 -3.077020 -2.298390 -23.225300 -1.667380 -20.795200 23.884100 3.812728 -6.382444 -1.362025 -64.857597 12.000700 -15.838700 -6.231860 -0.016453 14.841700 16.964001 -7.972930 0.000000 -12.694613 -14.649283 1.556195 70.106598 -3.305120 50.006302 71.939796 -0.497750 17.309700 -16.964001 7.972930 0.000000 -5.948458 -28.988693 -21.031700 46.557056 0.687088 -11.383727 -16.448830 -2.573349 10.287820 -27.295979 -11.279739 24.287210 76.562042 -1.784853 3.494130 -22.124235 0.436750 1.929337 
2.452838 41.222530 6.682719 18.779400 0.296586 130.531998 5.436540 -2.901270 4.318860 8.242170 -6.145940 13.820300 -3.266920 -0.360468 -20.066601 2.008760 -15.382900 16.995701 4.850286 -5.935852 -1.352354 -57.550201 6.581600 -29.845600 -8.155330 -0.008810 10.580200 16.964001 -7.972930 0.000000 -14.336917 -15.009059 1.516172 65.736198 -5.905200 58.931702 70.764999 -0.489965 18.736799 -16.964001 7.972930 0.000000 -3.750493 -28.053915 -27.255772 44.123936 0.615029 -11.722919 -14.611669 -2.107020 8.998456 -23.169041 -10.566370 25.159340 70.099449 -1.551804 3.539286 -22.781759 0.347555 2.310457 
2.913795 41.868141 7.032798 18.299299 -1.101220 139.087006 5.623990 -3.263360 3.729210 8.582800 -6.881100 12.416700 -4.389680 1.236420 -17.853800 5.570640 -8.739990 10.182800 5.043862 -5.622814 -1.310692 -50.963200 0.538704 -42.867298 -10.988300 -0.001581 6.174170 16.964001 -7.972930 0.000000 -15.982072 -16.437365 1.657288 62.917500 -9.051160 65.217697 68.914803 -0.471358 17.155399 -16.964001 7.972930 0.000000 -1.601046 -26.279045 -30.113997 41.766041 0.546697 -10.725788 -11.839429 -1.647974 8.184458 -17.406199 -9.033130 27.367493 62.934284 -1.278085 0.760030 -22.814451 0.253251 2.636061 
3.466814 42.620922 7.359309 18.083000 -1.713580 147.641998 5.997320 -3.555740 3.180440 9.347000 -7.488410 10.804000 -6.129220 3.312610 -15.408100 9.068430 -1.583210 3.165600 4.844325 -5.215780 -1.227660 -45.482601 -5.522730 -51.519402 -14.506600 0.008285 1.000860 16.964001 -7.972930 0.000000 -17.588882 -17.000837 1.657928 60.002998 -12.428100 69.860901 65.987099 -0.441753 15.804000 -16.964001 7.972930 0.000000 0.844233 -23.703310 -29.610151 38.707352 0.462627 -8.289590 -8.168051 -1.249361 8.191736 -10.101147 -7.186661 30.484890 54.694988 -0.994432 -3.236948 -21.368689 0.070011 3.349859 
4.055219 43.270805 7.592187 17.296101 -1.907190 156.386002 6.242560 -3.663990 2.646380 9.954370 -7.638860 8.582590 -7.431030 5.653200 -12.207000 10.742700 5.699840 -3.606400 5.328283 -4.404788 -1.132280 -41.988998 -12.301100 -53.795601 -18.416300 0.019706 -2.990410 16.964001 -7.972930 0.000000 -19.311415 -16.003206 1.397310 56.167599 -15.383700 73.824699 62.165100 -0.407961 13.836900 -16.964001 7.972930 0.000000 2.801351 -20.310690 -27.506889 35.314587 0.365276 -4.371217 -5.941849 -0.960205 7.866216 -3.356983 -5.349001 32.311714 45.648224 -0.710702 -6.045134 -17.809502 -0.010142 3.602858 
4.589724 43.719040 7.805349 15.084000 -2.101510 165.764999 6.007230 -3.602250 1.847870 9.683860 -7.332980 5.282280 -6.961990 8.041860 -7.349590 9.106970 13.024500 -11.050200 6.644522 -3.666679 -1.086459 -40.152100 -19.621700 -53.802799 -23.374001 0.045541 -4.109550 16.964001 -7.972930 0.000000 -20.340803 -13.826211 0.974405 51.702400 -18.491301 77.752998 57.790199 -0.364031 10.692800 -16.964001 7.972930 0.000000 2.301274 -16.636347 -24.482513 32.939976 0.292321 -1.027680 -5.324327 -0.842761 7.533852 1.004182 -3.646988 30.977541 37.017155 -0.471352 -8.285920 -13.872000 0.077397 2.832679 
5.044941 43.945621 8.109268 -169.072006 -177.705002 -4.259680 5.174930 -3.481420 0.086117 8.266950 -6.926990 0.441483 -4.002700 9.729000 0.208320 3.093160 19.709801 -19.520399 8.619316 -3.456705 -1.175357 -39.150700 -26.743099 -55.467300 -29.298401 0.071549 -6.470970 16.964001 -7.972930 0.000000 -19.533689 -11.292577 0.606444 47.700500 -21.596800 80.458298 52.605301 -0.316850 8.512100 -16.964001 7.972930 0.000000 -2.510180 -13.325665 -19.110950 32.953110 0.304111 -0.422133 -5.251529 -0.877064 8.080986 1.912578 -1.980816 26.196226 30.458914 -0.325432 -11.314926 -12.183100 0.153357 2.091335 
5.522558 43.985394 8.525908 -173.764999 -177.559006 5.808630 4.304810 -3.452780 -2.621430 6.709840 -6.889530 -5.280050 -0.341670 9.654420 9.314740 -5.913480 24.990700 -28.522499 10.175572 -2.470339 -1.099709 -39.951000 -33.005402 -58.404999 -35.944901 0.109805 -7.824560 16.964001 -7.972930 0.000000 -17.748772 -9.635571 0.430175 45.329300 -23.605900 81.513702 45.984901 -0.260760 5.981280 -16.964001 7.972930 0.000000 -9.413211 -11.287834 -11.688239 34.063839 0.322035 -0.245727 -5.026829 -0.865300 8.198475 1.240784 -1.044658 18.928576 25.110548 -0.230389 -14.302425 -12.590096 0.218854 1.823173 
6.011286 44.033924 8.963825 3.188210 -2.532520 -165.190994 3.993690 -3.520110 -5.613620 6.281450 -7.071760 -11.197800 1.432350 8.402280 18.319901 -13.524000 27.985500 -37.338299 11.210938 0.000000 -0.751953 -42.402401 -37.937500 -60.915699 -43.141998 0.156151 -6.533910 16.964001 -7.972930 0.000000 -15.267394 -8.691073 0.421898 44.132599 -24.516800 81.986099 37.912102 -0.191685 3.260750 -16.964001 7.972930 0.000000 -14.133034 -10.375364 -3.624454 33.800289 0.332181 1.789898 -4.041024 -0.714047 7.607308 2.135385 -0.731429 11.569064 19.362776 -0.138826 -15.908800 -12.983962 0.238720 1.716632 
6.461089 44.160194 9.343899 1.825490 -2.579340 -158.022003 4.084220 -3.545400 -8.393580 6.668420 -7.137210 -16.744400 1.642030 7.054530 26.489700 -17.737900 29.186399 -44.976700 11.724283 2.906920 -0.300478 -44.515202 -41.269100 -63.004501 -50.358501 0.213155 -8.449240 16.964001 -7.972930 0.000000 -12.297665 -7.616277 0.425496 42.973598 -24.537399 82.170403 28.089800 -0.124048 0.844655 -16.964001 7.972930 0.000000 -16.196285 -9.772785 3.054989 32.266003 0.278462 3.264522 -2.722696 -0.507154 6.643980 4.295443 -0.272778 6.290081 13.629105 -0.070687 -16.927999 -11.972377 0.109218 2.295670 
6.939289 44.279381 9.679285 1.450880 -1.916060 -152.692001 4.271910 -3.372410 -10.657700 7.175780 -6.761500 -21.332600 1.517660 6.159150 33.298801 -20.849501 29.781500 -51.341801 11.042409 6.221478 0.282321 -45.449600 -42.880402 -65.271896 -58.089401 0.275503 -9.561640 16.964001 -7.972930 0.000000 -9.648973 -6.316359 0.373784 41.149601 -23.755301 83.110397 17.848000 -0.072626 -0.411105 -16.964001 7.972930 0.000000 -18.562679 -8.114529 6.285798 33.421001 0.297375 1.318127 -1.292143 -0.318471 5.518060 6.394497 1.074078 3.981857 8.613600 -0.023516 -18.315441 -9.982564 -0.113776 3.898535 
7.436352 44.214233 10.044485 1.920140 -0.809019 -149.548004 4.497650 -3.078060 -12.152500 7.689150 -6.096020 -24.475201 1.400660 5.870690 38.113701 -22.924801 29.601101 -55.733799 9.153762 10.338323 1.067066 -45.435001 -43.553799 -68.586700 -65.742104 0.337898 -9.617280 16.964001 -7.972930 0.000000 -7.670729 -5.381386 0.341206 38.730099 -22.183300 82.028900 9.337060 -0.045938 -2.908850 -16.964001 7.972930 0.000000 -22.710619 -5.701877 4.787204 39.127285 0.433118 -2.464029 0.270949 -0.113117 3.338318 8.502332 2.821571 3.144976 3.747596 0.018766 -18.987457 -7.742317 -0.278117 5.274669 
7.831794 43.817787 10.458372 2.543120 0.634989 -149.037003 4.565610 -2.682450 -12.829500 7.764800 -5.216430 -25.886299 1.720300 5.686910 40.452499 -24.296900 28.140699 -56.305801 7.121627 14.472336 1.871866 -44.428799 -43.797401 -71.852203 -72.419899 0.395552 -10.508200 16.964001 -7.972930 0.000000 -6.539809 -5.113174 0.362481 36.274799 -18.588900 76.257301 2.592430 -0.029058 -5.819360 -16.964001 7.972930 0.000000 -28.268339 -3.446995 0.499600 47.431854 0.672704 -6.572343 0.708596 0.025256 0.155281 8.305024 4.382300 2.773809 2.804778 0.006518 -17.989565 -8.019931 -0.406668 6.581950 
